<svg width="304" height="289" viewBox="0 0 304 289" fill="none" xmlns="http://www.w3.org/2000/svg">
<circle cx="173" cy="59" r="57.5" fill="url(#paint0_linear_2_276)" stroke="url(#paint1_linear_2_276)" stroke-width="3"/>
<mask id="mask0_2_276" style="mask-type:alpha" maskUnits="userSpaceOnUse" x="114" y="33" width="118" height="85">
<path d="M232 59C232 91.5848 205.585 118 173 118C140.415 118 114 91.5848 114 59C114 26.4152 135.915 34 168.5 34C201.085 34 232 26.4152 232 59Z" fill="url(#paint2_linear_2_276)"/>
</mask>
<g mask="url(#mask0_2_276)">
<g filter="url(#filter0_f_2_276)">
<path fill-rule="evenodd" clip-rule="evenodd" d="M219.5 209.997C219.666 209.999 219.833 210 220 210C243.748 210 263 190.748 263 167C263 143.252 243.748 124 220 124C219.833 124 219.666 124.001 219.5 124.003V124H192.087C192.688 120.423 193 116.748 193 113C193 76.5492 163.451 47 127 47C90.5492 47 61 76.5492 61 113C61 116.894 61.3372 120.709 61.984 124.418C41.0838 127.343 25 145.293 25 167C25 190.748 44.2518 210 68 210C68.1676 210 68.3351 209.999 68.5023 209.997L68.5 210H219.5V209.997Z" fill="#E18700"/>
</g>
</g>
<g filter="url(#filter1_b_2_276)">
<mask id="path-4-inside-1_2_276" fill="white">
<path fill-rule="evenodd" clip-rule="evenodd" d="M194.5 214.997C194.666 214.999 194.833 215 195 215C218.748 215 238 195.748 238 172C238 148.252 218.748 129 195 129C194.833 129 194.666 129.001 194.5 129.003V129H183.391C183.793 126.057 184 123.053 184 120C184 83.5492 154.451 54 118 54C81.5492 54 52 83.5492 52 120C52 123.439 52.2631 126.817 52.7702 130.115C49.6314 129.386 46.3607 129 43 129C19.2518 129 0 148.252 0 172C0 195.748 19.2518 215 43 215C43.1676 215 43.3351 214.999 43.5023 214.997L43.5 215H194.5V214.997Z"/>
</mask>
<path fill-rule="evenodd" clip-rule="evenodd" d="M194.5 214.997C194.666 214.999 194.833 215 195 215C218.748 215 238 195.748 238 172C238 148.252 218.748 129 195 129C194.833 129 194.666 129.001 194.5 129.003V129H183.391C183.793 126.057 184 123.053 184 120C184 83.5492 154.451 54 118 54C81.5492 54 52 83.5492 52 120C52 123.439 52.2631 126.817 52.7702 130.115C49.6314 129.386 46.3607 129 43 129C19.2518 129 0 148.252 0 172C0 195.748 19.2518 215 43 215C43.1676 215 43.3351 214.999 43.5023 214.997L43.5 215H194.5V214.997Z" fill="url(#paint3_linear_2_276)"/>
<path d="M194.5 214.997L194.534 211.997C193.733 211.988 192.961 212.3 192.391 212.864C191.821 213.427 191.5 214.196 191.5 214.997H194.5ZM194.5 129.003H191.5C191.5 129.804 191.821 130.573 192.391 131.136C192.961 131.7 193.733 132.012 194.534 132.003L194.5 129.003ZM194.5 129H197.5C197.5 127.343 196.157 126 194.5 126V129ZM183.391 129L180.419 128.595C180.302 129.453 180.562 130.32 181.131 130.973C181.701 131.625 182.525 132 183.391 132V129ZM52.7702 130.115L52.0913 133.037C53.0611 133.262 54.0796 132.992 54.8098 132.315C55.54 131.638 55.8867 130.643 55.7354 129.659L52.7702 130.115ZM43.5023 214.997L45.8564 216.857C46.573 215.95 46.7046 214.711 46.1946 213.674C45.6847 212.636 44.624 211.984 43.468 211.997L43.5023 214.997ZM43.5 215L41.1458 213.14C40.4331 214.043 40.2988 215.273 40.8001 216.308C41.3014 217.343 42.3501 218 43.5 218V215ZM194.5 215V218C196.157 218 197.5 216.657 197.5 215H194.5ZM194.466 217.997C194.644 217.999 194.822 218 195 218V212C194.845 212 194.689 211.999 194.534 211.997L194.466 217.997ZM195 218C220.405 218 241 197.405 241 172H235C235 194.091 217.091 212 195 212V218ZM241 172C241 146.595 220.405 126 195 126V132C217.091 132 235 149.909 235 172H241ZM195 126C194.822 126 194.644 126.001 194.466 126.003L194.534 132.003C194.689 132.001 194.844 132 195 132V126ZM191.5 129V129.003H197.5V129H191.5ZM183.391 132H194.5V126H183.391V132ZM186.364 129.405C186.783 126.329 187 123.189 187 120H181C181 122.917 180.802 125.786 180.419 128.595L186.364 129.405ZM187 120C187 81.8924 156.108 51 118 51V57C152.794 57 181 85.2061 181 120H187ZM118 51C79.8924 51 49 81.8924 49 120H55C55 85.2061 83.2061 57 118 57V51ZM49 120C49 123.593 49.2748 127.123 49.8051 130.571L55.7354 129.659C55.2514 126.512 55 123.286 55 120H49ZM53.4492 127.193C50.0893 126.412 46.5909 126 43 126V132C46.1306 132 49.1735 132.359 52.0913 133.037L53.4492 127.193ZM43 126C17.5949 126 -3 146.595 -3 172H3C3 149.909 20.9086 132 43 132V126ZM-3 172C-3 197.405 17.5949 218 43 218V212C20.9086 212 3 194.091 3 172H-3ZM43 218C43.1791 218 43.3579 217.999 43.5365 217.997L43.468 211.997C43.3122 211.999 43.1562 212 43 212V218ZM45.8542 216.86L45.8564 216.857L41.1481 213.138L41.1458 213.14L45.8542 216.86ZM194.5 212H43.5V218H194.5V212ZM191.5 214.997V215H197.5V214.997H191.5Z" fill="url(#paint4_linear_2_276)" mask="url(#path-4-inside-1_2_276)"/>
</g>
<g filter="url(#filter2_b_2_276)">
<mask id="path-6-inside-2_2_276" fill="white">
<path fill-rule="evenodd" clip-rule="evenodd" d="M272.563 170.351C272.683 170.352 272.804 170.353 272.924 170.353C290.087 170.353 304 156.44 304 139.277C304 122.115 290.087 108.202 272.924 108.202C272.804 108.202 272.683 108.202 272.563 108.204V108.202H264.535C264.825 106.075 264.975 103.904 264.975 101.697C264.975 75.3549 243.62 54 217.277 54C190.935 54 169.58 75.3549 169.58 101.697C169.58 104.183 169.77 106.624 170.136 109.007C167.868 108.48 165.504 108.202 163.076 108.202C145.913 108.202 132 122.115 132 139.277C132 156.44 145.913 170.353 163.076 170.353C163.197 170.353 163.318 170.352 163.439 170.351L163.437 170.353H272.563V170.351Z"/>
</mask>
<path fill-rule="evenodd" clip-rule="evenodd" d="M272.563 170.351C272.683 170.352 272.804 170.353 272.924 170.353C290.087 170.353 304 156.44 304 139.277C304 122.115 290.087 108.202 272.924 108.202C272.804 108.202 272.683 108.202 272.563 108.204V108.202H264.535C264.825 106.075 264.975 103.904 264.975 101.697C264.975 75.3549 243.62 54 217.277 54C190.935 54 169.58 75.3549 169.58 101.697C169.58 104.183 169.77 106.624 170.136 109.007C167.868 108.48 165.504 108.202 163.076 108.202C145.913 108.202 132 122.115 132 139.277C132 156.44 145.913 170.353 163.076 170.353C163.197 170.353 163.318 170.352 163.439 170.351L163.437 170.353H272.563V170.351Z" fill="url(#paint5_linear_2_276)"/>
<path d="M272.563 170.351L272.597 167.351C271.796 167.342 271.024 167.654 270.454 168.217C269.884 168.781 269.563 169.549 269.563 170.351H272.563ZM272.563 108.204H269.563C269.563 109.005 269.884 109.774 270.454 110.337C271.024 110.901 271.796 111.213 272.597 111.204L272.563 108.204ZM272.563 108.202H275.563C275.563 106.545 274.22 105.202 272.563 105.202V108.202ZM264.535 108.202L261.563 107.796C261.445 108.655 261.705 109.522 262.275 110.175C262.845 110.827 263.669 111.202 264.535 111.202V108.202ZM170.136 109.007L169.458 111.93C170.427 112.155 171.446 111.884 172.176 111.207C172.906 110.531 173.253 109.535 173.102 108.551L170.136 109.007ZM163.439 170.351L165.793 172.21C166.509 171.303 166.641 170.065 166.131 169.027C165.621 167.99 164.56 167.338 163.404 167.351L163.439 170.351ZM163.437 170.353L161.082 168.494C160.37 169.396 160.236 170.627 160.737 171.661C161.239 172.696 162.287 173.353 163.437 173.353V170.353ZM272.563 170.353V173.353C274.22 173.353 275.563 172.01 275.563 170.353H272.563ZM272.529 173.351C272.661 173.352 272.792 173.353 272.924 173.353V167.353C272.815 167.353 272.706 167.352 272.597 167.351L272.529 173.351ZM272.924 173.353C291.744 173.353 307 158.097 307 139.277H301C301 154.783 288.43 167.353 272.924 167.353V173.353ZM307 139.277C307 120.458 291.744 105.202 272.924 105.202V111.202C288.43 111.202 301 123.772 301 139.277H307ZM272.924 105.202C272.792 105.202 272.661 105.202 272.529 105.204L272.597 111.204C272.706 111.202 272.815 111.202 272.924 111.202V105.202ZM269.563 108.202V108.204H275.563V108.202H269.563ZM264.535 111.202H272.563V105.202H264.535V111.202ZM267.508 108.607C267.816 106.346 267.975 104.04 267.975 101.697H261.975C261.975 103.768 261.834 105.804 261.563 107.796L267.508 108.607ZM267.975 101.697C267.975 73.698 245.277 51 217.277 51V57C241.963 57 261.975 77.0117 261.975 101.697H267.975ZM217.277 51C189.278 51 166.58 73.698 166.58 101.697H172.58C172.58 77.0117 192.592 57 217.277 57V51ZM166.58 101.697C166.58 104.336 166.782 106.93 167.171 109.463L173.102 108.551C172.758 106.319 172.58 104.03 172.58 101.697H166.58ZM170.815 106.085C168.326 105.507 165.735 105.202 163.076 105.202V111.202C165.274 111.202 167.41 111.454 169.458 111.93L170.815 106.085ZM163.076 105.202C144.256 105.202 129 120.458 129 139.277H135C135 123.772 147.57 111.202 163.076 111.202V105.202ZM129 139.277C129 158.097 144.256 173.353 163.076 173.353V167.353C147.57 167.353 135 154.783 135 139.277H129ZM163.076 173.353C163.208 173.353 163.341 173.352 163.473 173.351L163.404 167.351C163.295 167.352 163.185 167.353 163.076 167.353V173.353ZM165.792 172.212L165.793 172.21L161.084 168.492L161.082 168.494L165.792 172.212ZM272.563 167.353H163.437V173.353H272.563V167.353ZM269.563 170.351V170.353H275.563V170.351H269.563Z" fill="url(#paint6_linear_2_276)" mask="url(#path-6-inside-2_2_276)"/>
</g>
<g filter="url(#filter3_b_2_276)">
<path d="M57.9191 203.686C61.784 198.725 69.7304 201.142 70.1783 207.415L71.3518 223.848C72.0108 233.076 63.2106 240.097 54.3593 237.404V237.404C45.5079 234.712 42.1078 223.98 47.7938 216.682L57.9191 203.686Z" fill="url(#paint7_linear_2_276)"/>
<path d="M115.427 203.686C119.291 198.725 127.238 201.142 127.686 207.415L128.859 223.848C129.518 233.076 120.718 240.097 111.867 237.404V237.404C103.015 234.712 99.6152 223.98 105.301 216.682L115.427 203.686Z" fill="url(#paint8_linear_2_276)"/>
<path d="M172.934 203.686C176.799 198.725 184.745 201.142 185.193 207.415L186.367 223.848C187.026 233.076 178.225 240.097 169.374 237.404V237.404C160.523 234.712 157.123 223.98 162.809 216.682L172.934 203.686Z" fill="url(#paint9_linear_2_276)"/>
</g>
<g filter="url(#filter4_b_2_276)">
<path d="M73.0927 249.206C76.9576 244.245 84.904 246.662 85.3519 252.935L86.5254 269.368C87.1843 278.596 78.3842 285.617 69.5328 282.925V282.925C60.6815 280.232 57.2814 269.5 62.9674 262.202L73.0927 249.206Z" fill="url(#paint10_linear_2_276)"/>
<path d="M121.68 249.206C125.545 244.245 133.491 246.662 133.939 252.935L135.112 269.368C135.771 278.596 126.971 285.617 118.12 282.925V282.925C109.268 280.232 105.868 269.5 111.554 262.202L121.68 249.206Z" fill="url(#paint11_linear_2_276)"/>
</g>
<defs>
<filter id="filter0_f_2_276" x="11" y="33" width="266" height="191" filterUnits="userSpaceOnUse" color-interpolation-filters="sRGB">
<feFlood flood-opacity="0" result="BackgroundImageFix"/>
<feBlend mode="normal" in="SourceGraphic" in2="BackgroundImageFix" result="shape"/>
<feGaussianBlur stdDeviation="7" result="effect1_foregroundBlur_2_276"/>
</filter>
<filter id="filter1_b_2_276" x="-14" y="40" width="266" height="189" filterUnits="userSpaceOnUse" color-interpolation-filters="sRGB">
<feFlood flood-opacity="0" result="BackgroundImageFix"/>
<feGaussianBlur in="BackgroundImageFix" stdDeviation="7"/>
<feComposite in2="SourceAlpha" operator="in" result="effect1_backgroundBlur_2_276"/>
<feBlend mode="normal" in="SourceGraphic" in2="effect1_backgroundBlur_2_276" result="shape"/>
</filter>
<filter id="filter2_b_2_276" x="118" y="40" width="200" height="144.353" filterUnits="userSpaceOnUse" color-interpolation-filters="sRGB">
<feFlood flood-opacity="0" result="BackgroundImageFix"/>
<feGaussianBlur in="BackgroundImageFix" stdDeviation="7"/>
<feComposite in2="SourceAlpha" operator="in" result="effect1_backgroundBlur_2_276"/>
<feBlend mode="normal" in="SourceGraphic" in2="effect1_backgroundBlur_2_276" result="shape"/>
</filter>
<filter id="filter3_b_2_276" x="31.0018" y="187.031" width="169.4" height="64.9551" filterUnits="userSpaceOnUse" color-interpolation-filters="sRGB">
<feFlood flood-opacity="0" result="BackgroundImageFix"/>
<feGaussianBlur in="BackgroundImageFix" stdDeviation="7"/>
<feComposite in2="SourceAlpha" operator="in" result="effect1_backgroundBlur_2_276"/>
<feBlend mode="normal" in="SourceGraphic" in2="effect1_backgroundBlur_2_276" result="shape"/>
</filter>
<filter id="filter4_b_2_276" x="46.1754" y="232.551" width="102.972" height="64.9551" filterUnits="userSpaceOnUse" color-interpolation-filters="sRGB">
<feFlood flood-opacity="0" result="BackgroundImageFix"/>
<feGaussianBlur in="BackgroundImageFix" stdDeviation="7"/>
<feComposite in2="SourceAlpha" operator="in" result="effect1_backgroundBlur_2_276"/>
<feBlend mode="normal" in="SourceGraphic" in2="effect1_backgroundBlur_2_276" result="shape"/>
</filter>
<linearGradient id="paint0_linear_2_276" x1="173" y1="0" x2="173" y2="118" gradientUnits="userSpaceOnUse">
<stop stop-color="#FFE600"/>
<stop offset="1" stop-color="#FF7A00"/>
</linearGradient>
<linearGradient id="paint1_linear_2_276" x1="173" y1="0" x2="173" y2="118" gradientUnits="userSpaceOnUse">
<stop stop-color="white"/>
<stop offset="1" stop-color="white" stop-opacity="0"/>
</linearGradient>
<linearGradient id="paint2_linear_2_276" x1="173" y1="-3.81626e-05" x2="173" y2="118" gradientUnits="userSpaceOnUse">
<stop stop-color="#FFD600"/>
<stop offset="1" stop-color="#FF7A00"/>
</linearGradient>
<linearGradient id="paint3_linear_2_276" x1="119" y1="2.5" x2="119" y2="237.5" gradientUnits="userSpaceOnUse">
<stop stop-color="white"/>
<stop offset="1" stop-color="white" stop-opacity="0"/>
</linearGradient>
<linearGradient id="paint4_linear_2_276" x1="119" y1="54" x2="119" y2="215" gradientUnits="userSpaceOnUse">
<stop stop-color="white"/>
<stop offset="1" stop-color="white" stop-opacity="0"/>
</linearGradient>
<linearGradient id="paint5_linear_2_276" x1="226" y1="57.5" x2="226" y2="183.5" gradientUnits="userSpaceOnUse">
<stop stop-color="white"/>
<stop offset="1" stop-color="white" stop-opacity="0"/>
</linearGradient>
<linearGradient id="paint6_linear_2_276" x1="218" y1="54" x2="218" y2="170.353" gradientUnits="userSpaceOnUse">
<stop stop-color="white"/>
<stop offset="1" stop-color="white" stop-opacity="0"/>
</linearGradient>
<linearGradient id="paint7_linear_2_276" x1="68.9051" y1="189.585" x2="54.3593" y2="237.404" gradientUnits="userSpaceOnUse">
<stop stop-color="#138EFF"/>
<stop offset="1" stop-color="#00E0FF"/>
</linearGradient>
<linearGradient id="paint8_linear_2_276" x1="126.413" y1="189.585" x2="111.867" y2="237.404" gradientUnits="userSpaceOnUse">
<stop stop-color="#138EFF"/>
<stop offset="1" stop-color="#00E0FF"/>
</linearGradient>
<linearGradient id="paint9_linear_2_276" x1="183.92" y1="189.585" x2="169.374" y2="237.404" gradientUnits="userSpaceOnUse">
<stop stop-color="#138EFF"/>
<stop offset="1" stop-color="#00E0FF"/>
</linearGradient>
<linearGradient id="paint10_linear_2_276" x1="84.0787" y1="235.105" x2="69.5328" y2="282.925" gradientUnits="userSpaceOnUse">
<stop stop-color="#138EFF"/>
<stop offset="1" stop-color="#00E0FF"/>
</linearGradient>
<linearGradient id="paint11_linear_2_276" x1="132.666" y1="235.105" x2="118.12" y2="282.925" gradientUnits="userSpaceOnUse">
<stop stop-color="#138EFF"/>
<stop offset="1" stop-color="#00E0FF"/>
</linearGradient>
</defs>
</svg>
