<svg width="240" height="214" viewBox="0 0 240 214" fill="none" xmlns="http://www.w3.org/2000/svg">
<circle cx="74.6203" cy="74.1324" r="73.1083" fill="url(#paint0_linear_2_55)" stroke="url(#paint1_linear_2_55)" stroke-width="2"/>
<mask id="mask0_2_55" style="mask-type:alpha" maskUnits="userSpaceOnUse" x="0" y="41" width="149" height="108">
<path d="M148.729 74.1325C148.729 115.061 115.549 148.241 74.6203 148.241C33.6914 148.241 0.512024 115.061 0.512024 74.1325C0.512024 33.2037 28.0391 42.7307 68.968 42.7307C109.897 42.7307 148.729 33.2037 148.729 74.1325Z" fill="url(#paint2_linear_2_55)"/>
</mask>
<g mask="url(#mask0_2_55)">
<g filter="url(#filter0_f_2_55)">
<path fill-rule="evenodd" clip-rule="evenodd" d="M187.667 209.788C187.667 239.618 163.486 263.799 133.656 263.799C133.446 263.799 133.237 263.798 133.028 263.796V263.799H-56.6389L-56.6365 263.796C-56.8464 263.799 -57.0567 263.8 -57.2672 263.8C-87.0967 263.8 -111.278 239.618 -111.278 209.789C-111.278 179.959 -87.0967 155.778 -57.2672 155.778C-31.5551 155.778 -10.0393 173.744 -4.5895 197.808L13.7012 174.618L70.8525 155.777H133.028V155.781C133.237 155.778 133.446 155.777 133.656 155.777C163.486 155.777 187.667 179.959 187.667 209.788Z" fill="#E18700"/>
</g>
</g>
<g filter="url(#filter1_b_2_55)">
<mask id="path-4-inside-1_2_55" fill="white">
<path fill-rule="evenodd" clip-rule="evenodd" d="M199.678 213.997C199.829 213.999 199.981 214 200.133 214C221.69 214 239.166 196.524 239.166 174.967C239.166 153.409 221.69 135.933 200.133 135.933C199.981 135.933 199.829 135.934 199.678 135.936V135.933H189.595C189.959 133.262 190.147 130.535 190.147 127.763C190.147 94.6751 163.324 67.8518 130.236 67.8518C97.1474 67.8518 70.3241 94.6751 70.3241 127.763C70.3241 130.886 70.563 133.952 71.0234 136.945C68.1741 136.283 65.2052 135.933 62.1546 135.933C40.5971 135.933 23.1213 153.409 23.1213 174.967C23.1213 196.524 40.5971 214 62.1546 214C62.3065 214 62.4582 213.999 62.6097 213.997L62.6077 214H199.678V213.997Z"/>
</mask>
<path fill-rule="evenodd" clip-rule="evenodd" d="M199.678 213.997C199.829 213.999 199.981 214 200.133 214C221.69 214 239.166 196.524 239.166 174.967C239.166 153.409 221.69 135.933 200.133 135.933C199.981 135.933 199.829 135.934 199.678 135.936V135.933H189.595C189.959 133.262 190.147 130.535 190.147 127.763C190.147 94.6751 163.324 67.8518 130.236 67.8518C97.1474 67.8518 70.3241 94.6751 70.3241 127.763C70.3241 130.886 70.563 133.952 71.0234 136.945C68.1741 136.283 65.2052 135.933 62.1546 135.933C40.5971 135.933 23.1213 153.409 23.1213 174.967C23.1213 196.524 40.5971 214 62.1546 214C62.3065 214 62.4582 213.999 62.6097 213.997L62.6077 214H199.678V213.997Z" fill="url(#paint3_linear_2_55)"/>
<path d="M199.678 213.997L199.7 211.998C199.166 211.991 198.652 212.199 198.272 212.575C197.892 212.951 197.678 213.463 197.678 213.997H199.678ZM199.678 135.936H197.678C197.678 136.47 197.892 136.983 198.272 137.358C198.652 137.734 199.166 137.942 199.701 137.936L199.678 135.936ZM199.678 135.933H201.678C201.678 134.829 200.782 133.933 199.678 133.933V135.933ZM189.595 135.933L187.613 135.663C187.535 136.236 187.708 136.814 188.088 137.249C188.468 137.684 189.017 137.933 189.595 137.933V135.933ZM71.0234 136.945L70.5707 138.894C71.2173 139.044 71.8963 138.863 72.3831 138.412C72.8698 137.961 73.101 137.297 73.0001 136.641L71.0234 136.945ZM62.6097 213.997L64.1793 215.237C64.6569 214.632 64.7446 213.807 64.4046 213.115C64.0647 212.424 63.3576 211.989 62.587 211.998L62.6097 213.997ZM62.6077 214L61.0381 212.76C60.563 213.362 60.4736 214.182 60.8078 214.872C61.1421 215.562 61.8412 216 62.6077 216V214ZM199.678 214V216C200.782 216 201.678 215.105 201.678 214H199.678ZM199.655 215.997C199.814 215.999 199.973 216 200.133 216V212C199.988 212 199.844 211.999 199.7 211.998L199.655 215.997ZM200.133 216C222.795 216 241.166 197.629 241.166 174.967H237.166C237.166 195.42 220.586 212 200.133 212V216ZM241.166 174.967C241.166 152.305 222.795 133.933 200.133 133.933V137.933C220.586 137.933 237.166 154.514 237.166 174.967H241.166ZM200.133 133.933C199.973 133.933 199.814 133.934 199.655 133.936L199.701 137.936C199.844 137.934 199.988 137.933 200.133 137.933V133.933ZM197.678 135.933V135.936H201.678V135.933H197.678ZM189.595 137.933H199.678V133.933H189.595V137.933ZM191.576 136.204C191.953 133.443 192.147 130.625 192.147 127.763H188.147C188.147 130.444 187.965 133.081 187.613 135.663L191.576 136.204ZM192.147 127.763C192.147 93.5706 164.428 65.8518 130.236 65.8518V69.8518C162.219 69.8518 188.147 95.7797 188.147 127.763H192.147ZM130.236 65.8518C96.0428 65.8518 68.3241 93.5706 68.3241 127.763H72.3241C72.3241 95.7797 98.252 69.8518 130.236 69.8518V65.8518ZM68.3241 127.763C68.3241 130.988 68.5708 134.156 69.0466 137.249L73.0001 136.641C72.5551 133.748 72.3241 130.783 72.3241 127.763H68.3241ZM71.476 134.997C68.4794 134.301 65.3587 133.933 62.1546 133.933V137.933C65.0518 137.933 67.8689 138.266 70.5707 138.894L71.476 134.997ZM62.1546 133.933C39.4925 133.933 21.1213 152.305 21.1213 174.967H25.1213C25.1213 154.514 41.7017 137.933 62.1546 137.933V133.933ZM21.1213 174.967C21.1213 197.629 39.4925 216 62.1546 216V212C41.7017 212 25.1213 195.42 25.1213 174.967H21.1213ZM62.1546 216C62.3141 216 62.4734 215.999 62.6325 215.997L62.587 211.998C62.443 211.999 62.2989 212 62.1546 212V216ZM64.1773 215.24L64.1793 215.237L61.0402 212.758L61.0381 212.76L64.1773 215.24ZM199.678 212H62.6077V216H199.678V212ZM197.678 213.997V214H201.678V213.997H197.678Z" fill="url(#paint4_linear_2_55)" mask="url(#path-4-inside-1_2_55)"/>
</g>
<defs>
<filter id="filter0_f_2_55" x="-125.278" y="141.777" width="326.945" height="136.023" filterUnits="userSpaceOnUse" color-interpolation-filters="sRGB">
<feFlood flood-opacity="0" result="BackgroundImageFix"/>
<feBlend mode="normal" in="SourceGraphic" in2="BackgroundImageFix" result="shape"/>
<feGaussianBlur stdDeviation="7" result="effect1_foregroundBlur_2_55"/>
</filter>
<filter id="filter1_b_2_55" x="9.12131" y="53.8518" width="244.045" height="174.148" filterUnits="userSpaceOnUse" color-interpolation-filters="sRGB">
<feFlood flood-opacity="0" result="BackgroundImageFix"/>
<feGaussianBlur in="BackgroundImageFix" stdDeviation="7"/>
<feComposite in2="SourceAlpha" operator="in" result="effect1_backgroundBlur_2_55"/>
<feBlend mode="normal" in="SourceGraphic" in2="effect1_backgroundBlur_2_55" result="shape"/>
</filter>
<linearGradient id="paint0_linear_2_55" x1="74.6203" y1="0.0241089" x2="74.6203" y2="148.241" gradientUnits="userSpaceOnUse">
<stop stop-color="#FFE600"/>
<stop offset="1" stop-color="#FF7A00"/>
</linearGradient>
<linearGradient id="paint1_linear_2_55" x1="74.6203" y1="0.0241089" x2="74.6203" y2="148.241" gradientUnits="userSpaceOnUse">
<stop stop-color="white"/>
<stop offset="1" stop-color="white" stop-opacity="0"/>
</linearGradient>
<linearGradient id="paint2_linear_2_55" x1="74.6203" y1="0.0242753" x2="74.6203" y2="148.241" gradientUnits="userSpaceOnUse">
<stop stop-color="#FFD600"/>
<stop offset="1" stop-color="#FF7A00"/>
</linearGradient>
<linearGradient id="paint3_linear_2_55" x1="141.192" y1="72.2481" x2="141.192" y2="230.514" gradientUnits="userSpaceOnUse">
<stop stop-color="white"/>
<stop offset="1" stop-color="white" stop-opacity="0"/>
</linearGradient>
<linearGradient id="paint4_linear_2_55" x1="131.144" y1="67.8518" x2="131.144" y2="214" gradientUnits="userSpaceOnUse">
<stop stop-color="white"/>
<stop offset="1" stop-color="white" stop-opacity="0"/>
</linearGradient>
</defs>
</svg>
