<svg width="344" height="196" viewBox="0 0 344 196" fill="none" xmlns="http://www.w3.org/2000/svg">
<g filter="url(#filter0_b_2_126)">
<mask id="path-1-inside-1_2_126" fill="white">
<path fill-rule="evenodd" clip-rule="evenodd" d="M140.563 116.351C140.683 116.352 140.804 116.353 140.924 116.353C158.087 116.353 172 102.44 172 85.2773C172 68.1147 158.087 54.2017 140.924 54.2017C140.804 54.2017 140.683 54.2024 140.563 54.2037V54.2017H132.535C132.825 52.075 132.975 49.9037 132.975 47.6975C132.975 21.3549 111.62 0 85.2773 0C58.9347 0 37.5798 21.3549 37.5798 47.6975C37.5798 50.1831 37.77 52.6243 38.1365 55.0074C35.8681 54.4803 33.5044 54.2017 31.0756 54.2017C13.913 54.2017 0 68.1147 0 85.2773C0 102.44 13.913 116.353 31.0756 116.353C31.1968 116.353 31.3178 116.352 31.4386 116.351L31.437 116.353H140.563V116.351Z"/>
</mask>
<path fill-rule="evenodd" clip-rule="evenodd" d="M140.563 116.351C140.683 116.352 140.804 116.353 140.924 116.353C158.087 116.353 172 102.44 172 85.2773C172 68.1147 158.087 54.2017 140.924 54.2017C140.804 54.2017 140.683 54.2024 140.563 54.2037V54.2017H132.535C132.825 52.075 132.975 49.9037 132.975 47.6975C132.975 21.3549 111.62 0 85.2773 0C58.9347 0 37.5798 21.3549 37.5798 47.6975C37.5798 50.1831 37.77 52.6243 38.1365 55.0074C35.8681 54.4803 33.5044 54.2017 31.0756 54.2017C13.913 54.2017 0 68.1147 0 85.2773C0 102.44 13.913 116.353 31.0756 116.353C31.1968 116.353 31.3178 116.352 31.4386 116.351L31.437 116.353H140.563V116.351Z" fill="url(#paint0_linear_2_126)"/>
<path d="M140.563 116.351L140.586 114.351C140.052 114.345 139.537 114.553 139.157 114.929C138.777 115.304 138.563 115.816 138.563 116.351H140.563ZM140.563 54.2037H138.563C138.563 54.7381 138.777 55.2503 139.157 55.626C139.537 56.0017 140.051 56.2097 140.586 56.2036L140.563 54.2037ZM140.563 54.2017H142.563C142.563 53.0971 141.668 52.2017 140.563 52.2017V54.2017ZM132.535 54.2017L130.553 53.9315C130.475 54.5037 130.649 55.0818 131.028 55.5169C131.408 55.952 131.957 56.2017 132.535 56.2017V54.2017ZM38.1365 55.0074L37.6838 56.9555C38.3304 57.1057 39.0094 56.9253 39.4962 56.4741C39.9829 56.0228 40.2141 55.3594 40.1132 54.7033L38.1365 55.0074ZM31.4386 116.351L33.0083 117.59C33.4859 116.985 33.5734 116.16 33.2334 115.468C32.8934 114.777 32.1863 114.342 31.4158 114.351L31.4386 116.351ZM31.437 116.353L29.8672 115.114C29.3923 115.715 29.3029 116.535 29.6372 117.225C29.9714 117.915 30.6705 118.353 31.437 118.353V116.353ZM140.563 116.353V118.353C141.668 118.353 142.563 117.458 142.563 116.353H140.563ZM140.54 118.351C140.668 118.352 140.796 118.353 140.924 118.353V114.353C140.811 114.353 140.699 114.352 140.586 114.351L140.54 118.351ZM140.924 118.353C159.192 118.353 174 103.544 174 85.2773H170C170 101.335 156.982 114.353 140.924 114.353V118.353ZM174 85.2773C174 67.0101 159.192 52.2017 140.924 52.2017V56.2017C156.982 56.2017 170 69.2193 170 85.2773H174ZM140.924 52.2017C140.796 52.2017 140.668 52.2024 140.54 52.2039L140.586 56.2036C140.699 56.2023 140.811 56.2017 140.924 56.2017V52.2017ZM138.563 54.2017V54.2037H142.563V54.2017H138.563ZM132.535 56.2017H140.563V52.2017H132.535V56.2017ZM134.517 54.4719C134.819 52.2559 134.975 49.9944 134.975 47.6975H130.975C130.975 49.8131 130.831 51.8941 130.553 53.9315L134.517 54.4719ZM134.975 47.6975C134.975 20.2503 112.724 -2 85.2773 -2V2C110.515 2 130.975 22.4595 130.975 47.6975H134.975ZM85.2773 -2C57.8302 -2 35.5798 20.2503 35.5798 47.6975H39.5798C39.5798 22.4595 60.0393 2 85.2773 2V-2ZM35.5798 47.6975C35.5798 50.2852 35.7778 52.8281 36.1597 55.3114L40.1132 54.7033C39.7621 52.4205 39.5798 50.081 39.5798 47.6975H35.5798ZM38.5891 53.0592C36.1734 52.498 33.6578 52.2017 31.0756 52.2017V56.2017C33.351 56.2017 35.5628 56.4627 37.6838 56.9555L38.5891 53.0592ZM31.0756 52.2017C12.8085 52.2017 -2 67.0101 -2 85.2773H2C2 69.2193 15.0176 56.2017 31.0756 56.2017V52.2017ZM-2 85.2773C-2 103.544 12.8085 118.353 31.0756 118.353V114.353C15.0176 114.353 2 101.335 2 85.2773H-2ZM31.0756 118.353C31.2044 118.353 31.333 118.352 31.4615 118.351L31.4158 114.351C31.3025 114.352 31.1891 114.353 31.0756 114.353V118.353ZM33.0067 117.592L33.0083 117.59L29.8689 115.112L29.8672 115.114L33.0067 117.592ZM140.563 114.353H31.437V118.353H140.563V114.353ZM138.563 116.351V116.353H142.563V116.351H138.563Z" fill="url(#paint1_linear_2_126)" mask="url(#path-1-inside-1_2_126)"/>
</g>
<g filter="url(#filter1_b_2_126)">
<mask id="path-3-inside-2_2_126" fill="white">
<path fill-rule="evenodd" clip-rule="evenodd" d="M234.5 195.997C234.666 195.999 234.833 196 235 196C258.748 196 278 176.748 278 153C278 129.252 258.748 110 235 110C234.833 110 234.666 110.001 234.5 110.003V110H223.391C223.793 107.057 224 104.053 224 101C224 64.5492 194.451 35 158 35C121.549 35 92 64.5492 92 101C92 104.439 92.2631 107.817 92.7702 111.115C89.6314 110.386 86.3607 110 83 110C59.2518 110 40 129.252 40 153C40 176.748 59.2518 196 83 196C83.1676 196 83.3351 195.999 83.5023 195.997L83.5 196H234.5V195.997Z"/>
</mask>
<path fill-rule="evenodd" clip-rule="evenodd" d="M234.5 195.997C234.666 195.999 234.833 196 235 196C258.748 196 278 176.748 278 153C278 129.252 258.748 110 235 110C234.833 110 234.666 110.001 234.5 110.003V110H223.391C223.793 107.057 224 104.053 224 101C224 64.5492 194.451 35 158 35C121.549 35 92 64.5492 92 101C92 104.439 92.2631 107.817 92.7702 111.115C89.6314 110.386 86.3607 110 83 110C59.2518 110 40 129.252 40 153C40 176.748 59.2518 196 83 196C83.1676 196 83.3351 195.999 83.5023 195.997L83.5 196H234.5V195.997Z" fill="url(#paint2_linear_2_126)"/>
<path d="M234.5 195.997L234.523 193.997C233.988 193.991 233.474 194.199 233.094 194.575C232.714 194.951 232.5 195.463 232.5 195.997H234.5ZM234.5 110.003H232.5C232.5 110.537 232.714 111.049 233.094 111.425C233.474 111.801 233.988 112.009 234.523 112.003L234.5 110.003ZM234.5 110H236.5C236.5 108.895 235.605 108 234.5 108V110ZM223.391 110L221.41 109.73C221.332 110.302 221.505 110.88 221.885 111.315C222.265 111.75 222.814 112 223.391 112V110ZM92.7702 111.115L92.3176 113.063C92.9642 113.213 93.6431 113.033 94.1299 112.582C94.6167 112.13 94.8479 111.467 94.747 110.811L92.7702 111.115ZM83.5023 195.997L85.0717 197.237C85.5494 196.632 85.6371 195.807 85.2972 195.115C84.9572 194.423 84.2501 193.988 83.4795 193.997L83.5023 195.997ZM83.5 196L81.9306 194.76C81.4554 195.362 81.3659 196.182 81.7001 196.872C82.0343 197.562 82.7334 198 83.5 198V196ZM234.5 196V198C235.605 198 236.5 197.105 236.5 196H234.5ZM234.477 197.997C234.651 197.999 234.825 198 235 198V194C234.841 194 234.682 193.999 234.523 193.997L234.477 197.997ZM235 198C259.853 198 280 177.853 280 153H276C276 175.644 257.644 194 235 194V198ZM280 153C280 128.147 259.853 108 235 108V112C257.644 112 276 130.356 276 153H280ZM235 108C234.826 108 234.651 108.001 234.477 108.003L234.523 112.003C234.682 112.001 234.841 112 235 112V108ZM232.5 110V110.003H236.5V110H232.5ZM223.391 112H234.5V108H223.391V112ZM225.373 110.27C225.787 107.238 226 104.143 226 101H222C222 103.962 221.799 106.876 221.41 109.73L225.373 110.27ZM226 101C226 63.4446 195.555 33 158 33V37C193.346 37 222 65.6538 222 101H226ZM158 33C120.445 33 90 63.4446 90 101H94C94 65.6538 122.654 37 158 37V33ZM90 101C90 104.542 90.2709 108.021 90.7935 111.419L94.747 110.811C94.2553 107.614 94 104.337 94 101H90ZM93.2229 109.167C89.9367 108.403 86.5142 108 83 108V112C86.2073 112 89.3261 112.368 92.3176 113.063L93.2229 109.167ZM83 108C58.1472 108 38 128.147 38 153H42C42 130.356 60.3563 112 83 112V108ZM38 153C38 177.853 58.1472 198 83 198V194C60.3563 194 42 175.644 42 153H38ZM83 198C83.1753 198 83.3503 197.999 83.5251 197.997L83.4795 193.997C83.3198 193.999 83.16 194 83 194V198ZM85.0694 197.24L85.0717 197.237L81.9328 194.757L81.9306 194.76L85.0694 197.24ZM234.5 194H83.5V198H234.5V194ZM232.5 195.997V196H236.5V195.997H232.5Z" fill="url(#paint3_linear_2_126)" mask="url(#path-3-inside-2_2_126)"/>
</g>
<g filter="url(#filter2_b_2_126)">
<mask id="path-5-inside-3_2_126" fill="white">
<path fill-rule="evenodd" clip-rule="evenodd" d="M312.563 151.351C312.683 151.352 312.804 151.353 312.924 151.353C330.087 151.353 344 137.44 344 120.277C344 103.115 330.087 89.2017 312.924 89.2017C312.804 89.2017 312.683 89.2024 312.563 89.2037V89.2017H304.535C304.825 87.075 304.975 84.9037 304.975 82.6975C304.975 56.3549 283.62 35 257.277 35C230.935 35 209.58 56.3549 209.58 82.6975C209.58 85.1831 209.77 87.6243 210.136 90.0074C207.868 89.4803 205.504 89.2017 203.076 89.2017C185.913 89.2017 172 103.115 172 120.277C172 137.44 185.913 151.353 203.076 151.353C203.197 151.353 203.318 151.352 203.439 151.351L203.437 151.353H312.563V151.351Z"/>
</mask>
<path fill-rule="evenodd" clip-rule="evenodd" d="M312.563 151.351C312.683 151.352 312.804 151.353 312.924 151.353C330.087 151.353 344 137.44 344 120.277C344 103.115 330.087 89.2017 312.924 89.2017C312.804 89.2017 312.683 89.2024 312.563 89.2037V89.2017H304.535C304.825 87.075 304.975 84.9037 304.975 82.6975C304.975 56.3549 283.62 35 257.277 35C230.935 35 209.58 56.3549 209.58 82.6975C209.58 85.1831 209.77 87.6243 210.136 90.0074C207.868 89.4803 205.504 89.2017 203.076 89.2017C185.913 89.2017 172 103.115 172 120.277C172 137.44 185.913 151.353 203.076 151.353C203.197 151.353 203.318 151.352 203.439 151.351L203.437 151.353H312.563V151.351Z" fill="url(#paint4_linear_2_126)"/>
<path d="M312.563 151.351L312.586 149.351C312.052 149.345 311.537 149.553 311.157 149.929C310.777 150.304 310.563 150.816 310.563 151.351H312.563ZM312.563 89.2037H310.563C310.563 89.7381 310.777 90.2503 311.157 90.626C311.537 91.0017 312.051 91.2097 312.586 91.2036L312.563 89.2037ZM312.563 89.2017H314.563C314.563 88.0971 313.668 87.2017 312.563 87.2017V89.2017ZM304.535 89.2017L302.553 88.9315C302.475 89.5037 302.649 90.0818 303.028 90.5169C303.408 90.952 303.957 91.2017 304.535 91.2017V89.2017ZM210.136 90.0074L209.684 91.9555C210.33 92.1057 211.009 91.9253 211.496 91.4741C211.983 91.0228 212.214 90.3594 212.113 89.7033L210.136 90.0074ZM203.439 151.351L205.008 152.59C205.486 151.985 205.573 151.16 205.233 150.468C204.893 149.777 204.186 149.342 203.416 149.351L203.439 151.351ZM203.437 151.353L201.867 150.114C201.392 150.715 201.303 151.535 201.637 152.225C201.971 152.915 202.67 153.353 203.437 153.353V151.353ZM312.563 151.353V153.353C313.668 153.353 314.563 152.458 314.563 151.353H312.563ZM312.54 153.351C312.668 153.352 312.796 153.353 312.924 153.353V149.353C312.811 149.353 312.699 149.352 312.586 149.351L312.54 153.351ZM312.924 153.353C331.192 153.353 346 138.544 346 120.277H342C342 136.335 328.982 149.353 312.924 149.353V153.353ZM346 120.277C346 102.01 331.192 87.2017 312.924 87.2017V91.2017C328.982 91.2017 342 104.219 342 120.277H346ZM312.924 87.2017C312.796 87.2017 312.668 87.2024 312.54 87.2039L312.586 91.2036C312.699 91.2023 312.811 91.2017 312.924 91.2017V87.2017ZM310.563 89.2017V89.2037H314.563V89.2017H310.563ZM304.535 91.2017H312.563V87.2017H304.535V91.2017ZM306.517 89.4719C306.819 87.2559 306.975 84.9944 306.975 82.6975H302.975C302.975 84.8131 302.831 86.8941 302.553 88.9315L306.517 89.4719ZM306.975 82.6975C306.975 55.2503 284.724 33 257.277 33V37C282.515 37 302.975 57.4595 302.975 82.6975H306.975ZM257.277 33C229.83 33 207.58 55.2503 207.58 82.6975H211.58C211.58 57.4595 232.039 37 257.277 37V33ZM207.58 82.6975C207.58 85.2852 207.778 87.8281 208.16 90.3114L212.113 89.7033C211.762 87.4205 211.58 85.081 211.58 82.6975H207.58ZM210.589 88.0592C208.173 87.498 205.658 87.2017 203.076 87.2017V91.2017C205.351 91.2017 207.563 91.4627 209.684 91.9555L210.589 88.0592ZM203.076 87.2017C184.808 87.2017 170 102.01 170 120.277H174C174 104.219 187.018 91.2017 203.076 91.2017V87.2017ZM170 120.277C170 138.544 184.808 153.353 203.076 153.353V149.353C187.018 149.353 174 136.335 174 120.277H170ZM203.076 153.353C203.204 153.353 203.333 153.352 203.461 153.351L203.416 149.351C203.303 149.352 203.189 149.353 203.076 149.353V153.353ZM205.007 152.592L205.008 152.59L201.869 150.112L201.867 150.114L205.007 152.592ZM312.563 149.353H203.437V153.353H312.563V149.353ZM310.563 151.351V151.353H314.563V151.351H310.563Z" fill="url(#paint5_linear_2_126)" mask="url(#path-5-inside-3_2_126)"/>
</g>
<defs>
<filter id="filter0_b_2_126" x="-14" y="-14" width="200" height="144.353" filterUnits="userSpaceOnUse" color-interpolation-filters="sRGB">
<feFlood flood-opacity="0" result="BackgroundImageFix"/>
<feGaussianBlur in="BackgroundImageFix" stdDeviation="7"/>
<feComposite in2="SourceAlpha" operator="in" result="effect1_backgroundBlur_2_126"/>
<feBlend mode="normal" in="SourceGraphic" in2="effect1_backgroundBlur_2_126" result="shape"/>
</filter>
<filter id="filter1_b_2_126" x="26" y="21" width="266" height="189" filterUnits="userSpaceOnUse" color-interpolation-filters="sRGB">
<feFlood flood-opacity="0" result="BackgroundImageFix"/>
<feGaussianBlur in="BackgroundImageFix" stdDeviation="7"/>
<feComposite in2="SourceAlpha" operator="in" result="effect1_backgroundBlur_2_126"/>
<feBlend mode="normal" in="SourceGraphic" in2="effect1_backgroundBlur_2_126" result="shape"/>
</filter>
<filter id="filter2_b_2_126" x="158" y="21" width="200" height="144.353" filterUnits="userSpaceOnUse" color-interpolation-filters="sRGB">
<feFlood flood-opacity="0" result="BackgroundImageFix"/>
<feGaussianBlur in="BackgroundImageFix" stdDeviation="7"/>
<feComposite in2="SourceAlpha" operator="in" result="effect1_backgroundBlur_2_126"/>
<feBlend mode="normal" in="SourceGraphic" in2="effect1_backgroundBlur_2_126" result="shape"/>
</filter>
<linearGradient id="paint0_linear_2_126" x1="94" y1="3.5" x2="94" y2="129.5" gradientUnits="userSpaceOnUse">
<stop stop-color="white"/>
<stop offset="1" stop-color="white" stop-opacity="0"/>
</linearGradient>
<linearGradient id="paint1_linear_2_126" x1="86" y1="0" x2="86" y2="116.353" gradientUnits="userSpaceOnUse">
<stop stop-color="white"/>
<stop offset="1" stop-color="white" stop-opacity="0"/>
</linearGradient>
<linearGradient id="paint2_linear_2_126" x1="159" y1="-16.5" x2="159" y2="218.5" gradientUnits="userSpaceOnUse">
<stop stop-color="white"/>
<stop offset="1" stop-color="white" stop-opacity="0"/>
</linearGradient>
<linearGradient id="paint3_linear_2_126" x1="159" y1="35" x2="159" y2="196" gradientUnits="userSpaceOnUse">
<stop stop-color="white"/>
<stop offset="1" stop-color="white" stop-opacity="0"/>
</linearGradient>
<linearGradient id="paint4_linear_2_126" x1="266" y1="38.5" x2="266" y2="164.5" gradientUnits="userSpaceOnUse">
<stop stop-color="white"/>
<stop offset="1" stop-color="white" stop-opacity="0"/>
</linearGradient>
<linearGradient id="paint5_linear_2_126" x1="258" y1="35" x2="258" y2="151.353" gradientUnits="userSpaceOnUse">
<stop stop-color="white"/>
<stop offset="1" stop-color="white" stop-opacity="0"/>
</linearGradient>
</defs>
</svg>
