<svg width="304" height="215" viewBox="0 0 304 215" fill="none" xmlns="http://www.w3.org/2000/svg">
<circle cx="173" cy="59" r="58" fill="url(#paint0_linear_2_26)" stroke="url(#paint1_linear_2_26)" stroke-width="2"/>
<mask id="mask0_2_26" style="mask-type:alpha" maskUnits="userSpaceOnUse" x="114" y="33" width="118" height="85">
<path d="M232 59C232 91.5848 205.585 118 173 118C140.415 118 114 91.5848 114 59C114 26.4152 135.915 34 168.5 34C201.085 34 232 26.4152 232 59Z" fill="url(#paint2_linear_2_26)"/>
</mask>
<g mask="url(#mask0_2_26)">
<g filter="url(#filter0_f_2_26)">
<path fill-rule="evenodd" clip-rule="evenodd" d="M219.5 209.997C219.666 209.999 219.833 210 220 210C243.748 210 263 190.748 263 167C263 143.252 243.748 124 220 124C219.833 124 219.666 124.001 219.5 124.003V124H192.087C192.688 120.423 193 116.748 193 113C193 76.5492 163.451 47 127 47C90.5492 47 61 76.5492 61 113C61 116.894 61.3372 120.709 61.984 124.418C41.0838 127.343 25 145.293 25 167C25 190.748 44.2518 210 68 210C68.1676 210 68.3351 209.999 68.5023 209.997L68.5 210H219.5V209.997Z" fill="#E18700"/>
</g>
</g>
<g filter="url(#filter1_b_2_26)">
<mask id="path-4-inside-1_2_26" fill="white">
<path fill-rule="evenodd" clip-rule="evenodd" d="M194.5 214.997C194.666 214.999 194.833 215 195 215C218.748 215 238 195.748 238 172C238 148.252 218.748 129 195 129C194.833 129 194.666 129.001 194.5 129.003V129H183.391C183.793 126.057 184 123.053 184 120C184 83.5492 154.451 54 118 54C81.5492 54 52 83.5492 52 120C52 123.439 52.2631 126.817 52.7702 130.115C49.6314 129.386 46.3607 129 43 129C19.2518 129 0 148.252 0 172C0 195.748 19.2518 215 43 215C43.1676 215 43.3351 214.999 43.5023 214.997L43.5 215H194.5V214.997Z"/>
</mask>
<path fill-rule="evenodd" clip-rule="evenodd" d="M194.5 214.997C194.666 214.999 194.833 215 195 215C218.748 215 238 195.748 238 172C238 148.252 218.748 129 195 129C194.833 129 194.666 129.001 194.5 129.003V129H183.391C183.793 126.057 184 123.053 184 120C184 83.5492 154.451 54 118 54C81.5492 54 52 83.5492 52 120C52 123.439 52.2631 126.817 52.7702 130.115C49.6314 129.386 46.3607 129 43 129C19.2518 129 0 148.252 0 172C0 195.748 19.2518 215 43 215C43.1676 215 43.3351 214.999 43.5023 214.997L43.5 215H194.5V214.997Z" fill="url(#paint3_linear_2_26)"/>
<path d="M194.5 214.997L194.523 212.997C193.988 212.991 193.474 213.199 193.094 213.575C192.714 213.951 192.5 214.463 192.5 214.997H194.5ZM194.5 129.003H192.5C192.5 129.537 192.714 130.049 193.094 130.425C193.474 130.801 193.988 131.009 194.523 131.003L194.5 129.003ZM194.5 129H196.5C196.5 127.895 195.605 127 194.5 127V129ZM183.391 129L181.41 128.73C181.332 129.302 181.505 129.88 181.885 130.315C182.265 130.75 182.814 131 183.391 131V129ZM52.7702 130.115L52.3176 132.063C52.9642 132.213 53.6431 132.033 54.1299 131.582C54.6167 131.13 54.8479 130.467 54.747 129.811L52.7702 130.115ZM43.5023 214.997L45.0717 216.237C45.5494 215.632 45.6371 214.807 45.2972 214.115C44.9572 213.423 44.2501 212.988 43.4795 212.997L43.5023 214.997ZM43.5 215L41.9306 213.76C41.4554 214.362 41.3659 215.182 41.7001 215.872C42.0343 216.562 42.7334 217 43.5 217V215ZM194.5 215V217C195.605 217 196.5 216.105 196.5 215H194.5ZM194.477 216.997C194.651 216.999 194.825 217 195 217V213C194.841 213 194.682 212.999 194.523 212.997L194.477 216.997ZM195 217C219.853 217 240 196.853 240 172H236C236 194.644 217.644 213 195 213V217ZM240 172C240 147.147 219.853 127 195 127V131C217.644 131 236 149.356 236 172H240ZM195 127C194.826 127 194.651 127.001 194.477 127.003L194.523 131.003C194.682 131.001 194.841 131 195 131V127ZM192.5 129V129.003H196.5V129H192.5ZM183.391 131H194.5V127H183.391V131ZM185.373 129.27C185.787 126.238 186 123.143 186 120H182C182 122.962 181.799 125.876 181.41 128.73L185.373 129.27ZM186 120C186 82.4446 155.555 52 118 52V56C153.346 56 182 84.6538 182 120H186ZM118 52C80.4446 52 50 82.4446 50 120H54C54 84.6538 82.6538 56 118 56V52ZM50 120C50 123.542 50.2709 127.021 50.7935 130.419L54.747 129.811C54.2553 126.614 54 123.337 54 120H50ZM53.2229 128.167C49.9367 127.403 46.5142 127 43 127V131C46.2073 131 49.3261 131.368 52.3176 132.063L53.2229 128.167ZM43 127C18.1472 127 -2 147.147 -2 172H2C2 149.356 20.3563 131 43 131V127ZM-2 172C-2 196.853 18.1472 217 43 217V213C20.3563 213 2 194.644 2 172H-2ZM43 217C43.1753 217 43.3503 216.999 43.5251 216.997L43.4795 212.997C43.3198 212.999 43.16 213 43 213V217ZM45.0694 216.24L45.0717 216.237L41.9328 213.757L41.9306 213.76L45.0694 216.24ZM194.5 213H43.5V217H194.5V213ZM192.5 214.997V215H196.5V214.997H192.5Z" fill="url(#paint4_linear_2_26)" mask="url(#path-4-inside-1_2_26)"/>
</g>
<g filter="url(#filter2_b_2_26)">
<mask id="path-6-inside-2_2_26" fill="white">
<path fill-rule="evenodd" clip-rule="evenodd" d="M272.563 170.351C272.683 170.352 272.804 170.353 272.924 170.353C290.087 170.353 304 156.44 304 139.277C304 122.115 290.087 108.202 272.924 108.202C272.804 108.202 272.683 108.202 272.563 108.204V108.202H264.535C264.825 106.075 264.975 103.904 264.975 101.697C264.975 75.3549 243.62 54 217.277 54C190.935 54 169.58 75.3549 169.58 101.697C169.58 104.183 169.77 106.624 170.136 109.007C167.868 108.48 165.504 108.202 163.076 108.202C145.913 108.202 132 122.115 132 139.277C132 156.44 145.913 170.353 163.076 170.353C163.197 170.353 163.318 170.352 163.439 170.351L163.437 170.353H272.563V170.351Z"/>
</mask>
<path fill-rule="evenodd" clip-rule="evenodd" d="M272.563 170.351C272.683 170.352 272.804 170.353 272.924 170.353C290.087 170.353 304 156.44 304 139.277C304 122.115 290.087 108.202 272.924 108.202C272.804 108.202 272.683 108.202 272.563 108.204V108.202H264.535C264.825 106.075 264.975 103.904 264.975 101.697C264.975 75.3549 243.62 54 217.277 54C190.935 54 169.58 75.3549 169.58 101.697C169.58 104.183 169.77 106.624 170.136 109.007C167.868 108.48 165.504 108.202 163.076 108.202C145.913 108.202 132 122.115 132 139.277C132 156.44 145.913 170.353 163.076 170.353C163.197 170.353 163.318 170.352 163.439 170.351L163.437 170.353H272.563V170.351Z" fill="url(#paint5_linear_2_26)"/>
<path d="M272.563 170.351L272.586 168.351C272.052 168.345 271.537 168.553 271.157 168.929C270.777 169.304 270.563 169.816 270.563 170.351H272.563ZM272.563 108.204H270.563C270.563 108.738 270.777 109.25 271.157 109.626C271.537 110.002 272.051 110.21 272.586 110.204L272.563 108.204ZM272.563 108.202H274.563C274.563 107.097 273.668 106.202 272.563 106.202V108.202ZM264.535 108.202L262.553 107.931C262.475 108.504 262.649 109.082 263.028 109.517C263.408 109.952 263.957 110.202 264.535 110.202V108.202ZM170.136 109.007L169.684 110.955C170.33 111.106 171.009 110.925 171.496 110.474C171.983 110.023 172.214 109.359 172.113 108.703L170.136 109.007ZM163.439 170.351L165.008 171.59C165.486 170.985 165.573 170.16 165.233 169.468C164.893 168.777 164.186 168.342 163.416 168.351L163.439 170.351ZM163.437 170.353L161.867 169.114C161.392 169.715 161.303 170.535 161.637 171.225C161.971 171.915 162.67 172.353 163.437 172.353V170.353ZM272.563 170.353V172.353C273.668 172.353 274.563 171.458 274.563 170.353H272.563ZM272.54 172.351C272.668 172.352 272.796 172.353 272.924 172.353V168.353C272.811 168.353 272.699 168.352 272.586 168.351L272.54 172.351ZM272.924 172.353C291.192 172.353 306 157.544 306 139.277H302C302 155.335 288.982 168.353 272.924 168.353V172.353ZM306 139.277C306 121.01 291.192 106.202 272.924 106.202V110.202C288.982 110.202 302 123.219 302 139.277H306ZM272.924 106.202C272.796 106.202 272.668 106.202 272.54 106.204L272.586 110.204C272.698 110.202 272.811 110.202 272.924 110.202V106.202ZM270.563 108.202V108.204H274.563V108.202H270.563ZM264.535 110.202H272.563V106.202H264.535V110.202ZM266.517 108.472C266.819 106.256 266.975 103.994 266.975 101.697H262.975C262.975 103.813 262.831 105.894 262.553 107.931L266.517 108.472ZM266.975 101.697C266.975 74.2503 244.724 52 217.277 52V56C242.515 56 262.975 76.4595 262.975 101.697H266.975ZM217.277 52C189.83 52 167.58 74.2503 167.58 101.697H171.58C171.58 76.4595 192.039 56 217.277 56V52ZM167.58 101.697C167.58 104.285 167.778 106.828 168.16 109.311L172.113 108.703C171.762 106.421 171.58 104.081 171.58 101.697H167.58ZM170.589 107.059C168.173 106.498 165.658 106.202 163.076 106.202V110.202C165.351 110.202 167.563 110.463 169.684 110.955L170.589 107.059ZM163.076 106.202C144.808 106.202 130 121.01 130 139.277H134C134 123.219 147.018 110.202 163.076 110.202V106.202ZM130 139.277C130 157.544 144.808 172.353 163.076 172.353V168.353C147.018 168.353 134 155.335 134 139.277H130ZM163.076 172.353C163.204 172.353 163.333 172.352 163.461 172.351L163.416 168.351C163.303 168.352 163.189 168.353 163.076 168.353V172.353ZM165.007 171.592L165.008 171.59L161.869 169.112L161.867 169.114L165.007 171.592ZM272.563 168.353H163.437V172.353H272.563V168.353ZM270.563 170.351V170.353H274.563V170.351H270.563Z" fill="url(#paint6_linear_2_26)" mask="url(#path-6-inside-2_2_26)"/>
</g>
<defs>
<filter id="filter0_f_2_26" x="11" y="33" width="266" height="191" filterUnits="userSpaceOnUse" color-interpolation-filters="sRGB">
<feFlood flood-opacity="0" result="BackgroundImageFix"/>
<feBlend mode="normal" in="SourceGraphic" in2="BackgroundImageFix" result="shape"/>
<feGaussianBlur stdDeviation="7" result="effect1_foregroundBlur_2_26"/>
</filter>
<filter id="filter1_b_2_26" x="-14" y="40" width="266" height="189" filterUnits="userSpaceOnUse" color-interpolation-filters="sRGB">
<feFlood flood-opacity="0" result="BackgroundImageFix"/>
<feGaussianBlur in="BackgroundImageFix" stdDeviation="7"/>
<feComposite in2="SourceAlpha" operator="in" result="effect1_backgroundBlur_2_26"/>
<feBlend mode="normal" in="SourceGraphic" in2="effect1_backgroundBlur_2_26" result="shape"/>
</filter>
<filter id="filter2_b_2_26" x="118" y="40" width="200" height="144.353" filterUnits="userSpaceOnUse" color-interpolation-filters="sRGB">
<feFlood flood-opacity="0" result="BackgroundImageFix"/>
<feGaussianBlur in="BackgroundImageFix" stdDeviation="7"/>
<feComposite in2="SourceAlpha" operator="in" result="effect1_backgroundBlur_2_26"/>
<feBlend mode="normal" in="SourceGraphic" in2="effect1_backgroundBlur_2_26" result="shape"/>
</filter>
<linearGradient id="paint0_linear_2_26" x1="173" y1="0" x2="173" y2="118" gradientUnits="userSpaceOnUse">
<stop stop-color="#FFE600"/>
<stop offset="1" stop-color="#FF7A00"/>
</linearGradient>
<linearGradient id="paint1_linear_2_26" x1="173" y1="0" x2="173" y2="118" gradientUnits="userSpaceOnUse">
<stop stop-color="white"/>
<stop offset="1" stop-color="white" stop-opacity="0"/>
</linearGradient>
<linearGradient id="paint2_linear_2_26" x1="173" y1="-7.64507e-06" x2="173" y2="118" gradientUnits="userSpaceOnUse">
<stop stop-color="#FFD600"/>
<stop offset="1" stop-color="#FF7A00"/>
</linearGradient>
<linearGradient id="paint3_linear_2_26" x1="119" y1="2.5" x2="119" y2="237.5" gradientUnits="userSpaceOnUse">
<stop stop-color="white"/>
<stop offset="1" stop-color="white" stop-opacity="0"/>
</linearGradient>
<linearGradient id="paint4_linear_2_26" x1="119" y1="54" x2="119" y2="215" gradientUnits="userSpaceOnUse">
<stop stop-color="white"/>
<stop offset="1" stop-color="white" stop-opacity="0"/>
</linearGradient>
<linearGradient id="paint5_linear_2_26" x1="226" y1="57.5" x2="226" y2="183.5" gradientUnits="userSpaceOnUse">
<stop stop-color="white"/>
<stop offset="1" stop-color="white" stop-opacity="0"/>
</linearGradient>
<linearGradient id="paint6_linear_2_26" x1="218" y1="54" x2="218" y2="170.353" gradientUnits="userSpaceOnUse">
<stop stop-color="white"/>
<stop offset="1" stop-color="white" stop-opacity="0"/>
</linearGradient>
</defs>
</svg>
