<svg width="304" height="219" viewBox="0 0 304 219" fill="none" xmlns="http://www.w3.org/2000/svg">
<g filter="url(#filter0_b_2_220)">
<mask id="path-1-inside-1_2_220" fill="white">
<path fill-rule="evenodd" clip-rule="evenodd" d="M194.5 160.997C194.666 160.999 194.833 161 195 161C218.748 161 238 141.748 238 118C238 94.2518 218.748 75 195 75C194.833 75 194.666 75.0009 194.5 75.0028V75H183.391C183.793 72.0573 184 69.0528 184 66C184 29.5492 154.451 0 118 0C81.5492 0 52 29.5492 52 66C52 69.4394 52.2631 72.8173 52.7702 76.1148C49.6314 75.3855 46.3607 75 43 75C19.2518 75 0 94.2518 0 118C0 141.748 19.2518 161 43 161C43.1676 161 43.3351 160.999 43.5023 160.997L43.5 161H194.5V160.997Z"/>
</mask>
<path fill-rule="evenodd" clip-rule="evenodd" d="M194.5 160.997C194.666 160.999 194.833 161 195 161C218.748 161 238 141.748 238 118C238 94.2518 218.748 75 195 75C194.833 75 194.666 75.0009 194.5 75.0028V75H183.391C183.793 72.0573 184 69.0528 184 66C184 29.5492 154.451 0 118 0C81.5492 0 52 29.5492 52 66C52 69.4394 52.2631 72.8173 52.7702 76.1148C49.6314 75.3855 46.3607 75 43 75C19.2518 75 0 94.2518 0 118C0 141.748 19.2518 161 43 161C43.1676 161 43.3351 160.999 43.5023 160.997L43.5 161H194.5V160.997Z" fill="url(#paint0_linear_2_220)"/>
<path d="M194.5 160.997L194.523 158.997C193.988 158.991 193.474 159.199 193.094 159.575C192.714 159.951 192.5 160.463 192.5 160.997H194.5ZM194.5 75.0028H192.5C192.5 75.5372 192.714 76.0494 193.094 76.4251C193.474 76.8008 193.988 77.0088 194.523 77.0027L194.5 75.0028ZM194.5 75H196.5C196.5 73.8954 195.605 73 194.5 73V75ZM183.391 75L181.41 74.7298C181.332 75.3021 181.505 75.8801 181.885 76.3152C182.265 76.7503 182.814 77 183.391 77V75ZM52.7702 76.1148L52.3176 78.0629C52.9642 78.2132 53.6431 78.0328 54.1299 77.5815C54.6167 77.1302 54.8479 76.4669 54.747 75.8108L52.7702 76.1148ZM43.5023 160.997L45.0717 162.237C45.5494 161.632 45.6371 160.807 45.2972 160.115C44.9572 159.423 44.2501 158.988 43.4795 158.997L43.5023 160.997ZM43.5 161L41.9306 159.76C41.4554 160.362 41.3659 161.182 41.7001 161.872C42.0343 162.562 42.7334 163 43.5 163V161ZM194.5 161V163C195.605 163 196.5 162.105 196.5 161H194.5ZM194.477 162.997C194.651 162.999 194.825 163 195 163V159C194.841 159 194.682 158.999 194.523 158.997L194.477 162.997ZM195 163C219.853 163 240 142.853 240 118H236C236 140.644 217.644 159 195 159V163ZM240 118C240 93.1472 219.853 73 195 73V77C217.644 77 236 95.3563 236 118H240ZM195 73C194.826 73 194.651 73.001 194.477 73.003L194.523 77.0027C194.682 77.0009 194.841 77 195 77V73ZM192.5 75V75.0028H196.5V75H192.5ZM183.391 77H194.5V73H183.391V77ZM185.373 75.2702C185.787 72.2382 186 69.1435 186 66H182C182 68.9622 181.799 71.8764 181.41 74.7298L185.373 75.2702ZM186 66C186 28.4446 155.555 -2 118 -2V2C153.346 2 182 30.6538 182 66H186ZM118 -2C80.4446 -2 50 28.4446 50 66H54C54 30.6538 82.6538 2 118 2V-2ZM50 66C50 69.5415 50.2709 73.0211 50.7935 76.4188L54.747 75.8108C54.2553 72.6136 54 69.3373 54 66H50ZM53.2229 74.1667C49.9367 73.4032 46.5142 73 43 73V77C46.2073 77 49.3261 77.3679 52.3176 78.0629L53.2229 74.1667ZM43 73C18.1472 73 -2 93.1472 -2 118H2C2 95.3563 20.3563 77 43 77V73ZM-2 118C-2 142.853 18.1472 163 43 163V159C20.3563 159 2 140.644 2 118H-2ZM43 163C43.1753 163 43.3503 162.999 43.5251 162.997L43.4795 158.997C43.3198 158.999 43.16 159 43 159V163ZM45.0694 162.24L45.0717 162.237L41.9328 159.757L41.9306 159.76L45.0694 162.24ZM194.5 159H43.5V163H194.5V159ZM192.5 160.997V161H196.5V160.997H192.5Z" fill="url(#paint1_linear_2_220)" mask="url(#path-1-inside-1_2_220)"/>
</g>
<g filter="url(#filter1_b_2_220)">
<mask id="path-3-inside-2_2_220" fill="white">
<path fill-rule="evenodd" clip-rule="evenodd" d="M272.563 116.351C272.683 116.352 272.804 116.353 272.924 116.353C290.087 116.353 304 102.44 304 85.2773C304 68.1147 290.087 54.2017 272.924 54.2017C272.804 54.2017 272.683 54.2024 272.563 54.2037V54.2017H264.535C264.825 52.075 264.975 49.9037 264.975 47.6975C264.975 21.3549 243.62 0 217.277 0C190.935 0 169.58 21.3549 169.58 47.6975C169.58 50.1831 169.77 52.6243 170.136 55.0074C167.868 54.4803 165.504 54.2017 163.076 54.2017C145.913 54.2017 132 68.1147 132 85.2773C132 102.44 145.913 116.353 163.076 116.353C163.197 116.353 163.318 116.352 163.439 116.351L163.437 116.353H272.563V116.351Z"/>
</mask>
<path fill-rule="evenodd" clip-rule="evenodd" d="M272.563 116.351C272.683 116.352 272.804 116.353 272.924 116.353C290.087 116.353 304 102.44 304 85.2773C304 68.1147 290.087 54.2017 272.924 54.2017C272.804 54.2017 272.683 54.2024 272.563 54.2037V54.2017H264.535C264.825 52.075 264.975 49.9037 264.975 47.6975C264.975 21.3549 243.62 0 217.277 0C190.935 0 169.58 21.3549 169.58 47.6975C169.58 50.1831 169.77 52.6243 170.136 55.0074C167.868 54.4803 165.504 54.2017 163.076 54.2017C145.913 54.2017 132 68.1147 132 85.2773C132 102.44 145.913 116.353 163.076 116.353C163.197 116.353 163.318 116.352 163.439 116.351L163.437 116.353H272.563V116.351Z" fill="url(#paint2_linear_2_220)"/>
<path d="M272.563 116.351L272.586 114.351C272.052 114.345 271.537 114.553 271.157 114.929C270.777 115.304 270.563 115.816 270.563 116.351H272.563ZM272.563 54.2037H270.563C270.563 54.7381 270.777 55.2503 271.157 55.626C271.537 56.0017 272.051 56.2097 272.586 56.2036L272.563 54.2037ZM272.563 54.2017H274.563C274.563 53.0971 273.668 52.2017 272.563 52.2017V54.2017ZM264.535 54.2017L262.553 53.9315C262.475 54.5037 262.649 55.0818 263.028 55.5169C263.408 55.952 263.957 56.2017 264.535 56.2017V54.2017ZM170.136 55.0074L169.684 56.9555C170.33 57.1057 171.009 56.9253 171.496 56.4741C171.983 56.0228 172.214 55.3594 172.113 54.7033L170.136 55.0074ZM163.439 116.351L165.008 117.59C165.486 116.985 165.573 116.16 165.233 115.468C164.893 114.777 164.186 114.342 163.416 114.351L163.439 116.351ZM163.437 116.353L161.867 115.114C161.392 115.715 161.303 116.535 161.637 117.225C161.971 117.915 162.67 118.353 163.437 118.353V116.353ZM272.563 116.353V118.353C273.668 118.353 274.563 117.458 274.563 116.353H272.563ZM272.54 118.351C272.668 118.352 272.796 118.353 272.924 118.353V114.353C272.811 114.353 272.699 114.352 272.586 114.351L272.54 118.351ZM272.924 118.353C291.192 118.353 306 103.544 306 85.2773H302C302 101.335 288.982 114.353 272.924 114.353V118.353ZM306 85.2773C306 67.0101 291.192 52.2017 272.924 52.2017V56.2017C288.982 56.2017 302 69.2193 302 85.2773H306ZM272.924 52.2017C272.796 52.2017 272.668 52.2024 272.54 52.2039L272.586 56.2036C272.699 56.2023 272.811 56.2017 272.924 56.2017V52.2017ZM270.563 54.2017V54.2037H274.563V54.2017H270.563ZM264.535 56.2017H272.563V52.2017H264.535V56.2017ZM266.517 54.4719C266.819 52.2559 266.975 49.9944 266.975 47.6975H262.975C262.975 49.8131 262.831 51.8941 262.553 53.9315L266.517 54.4719ZM266.975 47.6975C266.975 20.2503 244.724 -2 217.277 -2V2C242.515 2 262.975 22.4595 262.975 47.6975H266.975ZM217.277 -2C189.83 -2 167.58 20.2503 167.58 47.6975H171.58C171.58 22.4595 192.039 2 217.277 2V-2ZM167.58 47.6975C167.58 50.2852 167.778 52.8281 168.16 55.3114L172.113 54.7033C171.762 52.4205 171.58 50.081 171.58 47.6975H167.58ZM170.589 53.0592C168.173 52.498 165.658 52.2017 163.076 52.2017V56.2017C165.351 56.2017 167.563 56.4627 169.684 56.9555L170.589 53.0592ZM163.076 52.2017C144.808 52.2017 130 67.0101 130 85.2773H134C134 69.2193 147.018 56.2017 163.076 56.2017V52.2017ZM130 85.2773C130 103.544 144.808 118.353 163.076 118.353V114.353C147.018 114.353 134 101.335 134 85.2773H130ZM163.076 118.353C163.204 118.353 163.333 118.352 163.461 118.351L163.416 114.351C163.303 114.352 163.189 114.353 163.076 114.353V118.353ZM165.007 117.592L165.008 117.59L161.869 115.112L161.867 115.114L165.007 117.592ZM272.563 114.353H163.437V118.353H272.563V114.353ZM270.563 116.351V116.353H274.563V116.351H270.563Z" fill="url(#paint3_linear_2_220)" mask="url(#path-3-inside-2_2_220)"/>
</g>
<g filter="url(#filter2_b_2_220)">
<path d="M94.708 134.3C98.0098 130.062 104.798 132.127 105.181 137.486L106.354 153.919C106.963 162.447 98.8305 168.936 90.6503 166.448C82.4702 163.959 79.3278 154.041 84.5827 147.296L94.708 134.3Z" fill="url(#paint4_linear_2_220)" stroke="url(#paint5_linear_2_220)" stroke-width="2"/>
<path d="M152.215 134.3C155.517 130.062 162.306 132.127 162.688 137.486L163.862 153.919C164.471 162.447 156.338 168.936 148.158 166.448C139.977 163.959 136.835 154.041 142.09 147.296L152.215 134.3Z" fill="url(#paint6_linear_2_220)" stroke="url(#paint7_linear_2_220)" stroke-width="2"/>
<path d="M209.723 134.3C213.024 130.062 219.813 132.127 220.196 137.486L221.369 153.919C221.978 162.447 213.845 168.936 205.665 166.448C197.485 163.959 194.342 154.041 199.597 147.296L209.723 134.3Z" fill="url(#paint8_linear_2_220)" stroke="url(#paint9_linear_2_220)" stroke-width="2"/>
</g>
<g filter="url(#filter3_b_2_220)">
<path d="M109.882 179.82C113.183 175.583 119.972 177.647 120.354 183.006L121.528 199.439C122.137 207.968 114.004 214.456 105.824 211.968C97.6437 209.48 94.5014 199.561 99.7562 192.817L109.882 179.82Z" fill="url(#paint10_linear_2_220)" stroke="url(#paint11_linear_2_220)" stroke-width="2"/>
<path d="M158.468 179.82C161.77 175.583 168.559 177.647 168.941 183.006L170.115 199.439C170.724 207.968 162.591 214.456 154.411 211.968C146.231 209.48 143.088 199.561 148.343 192.817L158.468 179.82Z" fill="url(#paint12_linear_2_220)" stroke="url(#paint13_linear_2_220)" stroke-width="2"/>
</g>
<defs>
<filter id="filter0_b_2_220" x="-14" y="-14" width="266" height="189" filterUnits="userSpaceOnUse" color-interpolation-filters="sRGB">
<feFlood flood-opacity="0" result="BackgroundImageFix"/>
<feGaussianBlur in="BackgroundImageFix" stdDeviation="7"/>
<feComposite in2="SourceAlpha" operator="in" result="effect1_backgroundBlur_2_220"/>
<feBlend mode="normal" in="SourceGraphic" in2="effect1_backgroundBlur_2_220" result="shape"/>
</filter>
<filter id="filter1_b_2_220" x="118" y="-14" width="200" height="144.353" filterUnits="userSpaceOnUse" color-interpolation-filters="sRGB">
<feFlood flood-opacity="0" result="BackgroundImageFix"/>
<feGaussianBlur in="BackgroundImageFix" stdDeviation="7"/>
<feComposite in2="SourceAlpha" operator="in" result="effect1_backgroundBlur_2_220"/>
<feBlend mode="normal" in="SourceGraphic" in2="effect1_backgroundBlur_2_220" result="shape"/>
</filter>
<filter id="filter2_b_2_220" x="67.0018" y="117.031" width="169.4" height="64.9551" filterUnits="userSpaceOnUse" color-interpolation-filters="sRGB">
<feFlood flood-opacity="0" result="BackgroundImageFix"/>
<feGaussianBlur in="BackgroundImageFix" stdDeviation="7"/>
<feComposite in2="SourceAlpha" operator="in" result="effect1_backgroundBlur_2_220"/>
<feBlend mode="normal" in="SourceGraphic" in2="effect1_backgroundBlur_2_220" result="shape"/>
</filter>
<filter id="filter3_b_2_220" x="82.1754" y="162.551" width="102.972" height="64.9551" filterUnits="userSpaceOnUse" color-interpolation-filters="sRGB">
<feFlood flood-opacity="0" result="BackgroundImageFix"/>
<feGaussianBlur in="BackgroundImageFix" stdDeviation="7"/>
<feComposite in2="SourceAlpha" operator="in" result="effect1_backgroundBlur_2_220"/>
<feBlend mode="normal" in="SourceGraphic" in2="effect1_backgroundBlur_2_220" result="shape"/>
</filter>
<linearGradient id="paint0_linear_2_220" x1="119" y1="-51.5" x2="119" y2="183.5" gradientUnits="userSpaceOnUse">
<stop stop-color="white"/>
<stop offset="1" stop-color="white" stop-opacity="0"/>
</linearGradient>
<linearGradient id="paint1_linear_2_220" x1="119" y1="0" x2="119" y2="161" gradientUnits="userSpaceOnUse">
<stop stop-color="white"/>
<stop offset="1" stop-color="white" stop-opacity="0"/>
</linearGradient>
<linearGradient id="paint2_linear_2_220" x1="226" y1="3.5" x2="226" y2="129.5" gradientUnits="userSpaceOnUse">
<stop stop-color="white"/>
<stop offset="1" stop-color="white" stop-opacity="0"/>
</linearGradient>
<linearGradient id="paint3_linear_2_220" x1="218" y1="0" x2="218" y2="116.353" gradientUnits="userSpaceOnUse">
<stop stop-color="white"/>
<stop offset="1" stop-color="white" stop-opacity="0"/>
</linearGradient>
<linearGradient id="paint4_linear_2_220" x1="104.905" y1="119.585" x2="90.3593" y2="167.404" gradientUnits="userSpaceOnUse">
<stop stop-color="#138EFF"/>
<stop offset="1" stop-color="#00E0FF"/>
</linearGradient>
<linearGradient id="paint5_linear_2_220" x1="104.905" y1="119.585" x2="90.3593" y2="167.404" gradientUnits="userSpaceOnUse">
<stop stop-color="white"/>
<stop offset="1" stop-color="white" stop-opacity="0"/>
</linearGradient>
<linearGradient id="paint6_linear_2_220" x1="162.413" y1="119.585" x2="147.867" y2="167.404" gradientUnits="userSpaceOnUse">
<stop stop-color="#138EFF"/>
<stop offset="1" stop-color="#00E0FF"/>
</linearGradient>
<linearGradient id="paint7_linear_2_220" x1="162.413" y1="119.585" x2="147.867" y2="167.404" gradientUnits="userSpaceOnUse">
<stop stop-color="white"/>
<stop offset="1" stop-color="white" stop-opacity="0"/>
</linearGradient>
<linearGradient id="paint8_linear_2_220" x1="219.92" y1="119.585" x2="205.374" y2="167.404" gradientUnits="userSpaceOnUse">
<stop stop-color="#138EFF"/>
<stop offset="1" stop-color="#00E0FF"/>
</linearGradient>
<linearGradient id="paint9_linear_2_220" x1="219.92" y1="119.585" x2="205.374" y2="167.404" gradientUnits="userSpaceOnUse">
<stop stop-color="white"/>
<stop offset="1" stop-color="white" stop-opacity="0"/>
</linearGradient>
<linearGradient id="paint10_linear_2_220" x1="120.079" y1="165.105" x2="105.533" y2="212.925" gradientUnits="userSpaceOnUse">
<stop stop-color="#138EFF"/>
<stop offset="1" stop-color="#00E0FF"/>
</linearGradient>
<linearGradient id="paint11_linear_2_220" x1="120.079" y1="165.105" x2="105.533" y2="212.925" gradientUnits="userSpaceOnUse">
<stop stop-color="white"/>
<stop offset="1" stop-color="white" stop-opacity="0"/>
</linearGradient>
<linearGradient id="paint12_linear_2_220" x1="168.666" y1="165.105" x2="154.12" y2="212.925" gradientUnits="userSpaceOnUse">
<stop stop-color="#138EFF"/>
<stop offset="1" stop-color="#00E0FF"/>
</linearGradient>
<linearGradient id="paint13_linear_2_220" x1="168.666" y1="165.105" x2="154.12" y2="212.925" gradientUnits="userSpaceOnUse">
<stop stop-color="white"/>
<stop offset="1" stop-color="white" stop-opacity="0"/>
</linearGradient>
</defs>
</svg>
